<?xml version="1.0" encoding="UTF-8" standalone="no"?>
<svg 
  xmlns="http://www.w3.org/2000/svg" 
  viewBox="0 0 24 24" 
  fill="none" 
  stroke="#1d539f" 
  stroke-width="1.5" 
  stroke-linecap="round" 
  stroke-linejoin="round" 
  role="img" 
  aria-hidden="true"
>
  <title>YouTube Icon</title>
  <desc>Refined and standardized YouTube SVG icon for consistent proportions and clarity</desc>
  
  <!-- Video Player Outer Shape -->
  <path 
    d="M21.6 8.3c-.2-1.1-.7-2-1.4-2.7-.7-.7-1.6-1.2-2.7-1.4C15.3 4 12 4 12 4s-3.3 0-5.5.2c-1.1.2-2 .7-2.7 1.4-.7.7-1.2 1.6-1.4 2.7C2 10.5 2 12 2 12s0 1.5.2 3.7c.2 1.1.7 2 1.4 2.7.7.7 1.6 1.2 2.7 1.4 2.2.2 5.5.2 5.5.2s3.3 0 5.5-.2c1.1-.2 2-.7 2.7-1.4.7-.7 1.2-1.6 1.4-2.7.2-2.2.2-3.7.2-3.7s0-1.5-.2-3.7z"
    fill="#1d539f"
    stroke="none"
  />
  
  <!-- Play Button -->
  <polygon 
    points="10 15 10 9 15 12"
    fill="#7bb6ed"
    stroke="none"
  />
</svg>
